<?xml version="1.0" encoding="UTF-8"?>
<!DOCTYPE svg PUBLIC "-//W3C//DTD SVG 1.1//EN" "http://www.w3.org/Graphics/SVG/1.1/DTD/svg11.dtd">
<svg xmlns="http://www.w3.org/2000/svg" version="1.1" width="4075px" height="474px" style="shape-rendering:geometricPrecision; text-rendering:geometricPrecision; image-rendering:optimizeQuality; fill-rule:evenodd; clip-rule:evenodd" xmlns:xlink="http://www.w3.org/1999/xlink">
<g><path style="opacity:1" fill="#e20612" d="M 216.5,-0.5 C 230.167,-0.5 243.833,-0.5 257.5,-0.5C 307.415,4.79544 351.748,23.2954 390.5,55C 400.925,65.9045 402.092,77.7378 394,90.5C 384.137,100.697 373.971,110.53 363.5,120C 353.8,125.086 343.8,125.753 333.5,122C 315.83,109.165 296.496,99.4982 275.5,93C 207.024,79.0342 152.524,100.201 112,156.5C 80.7268,209.831 80.7268,263.164 112,316.5C 153.343,374.18 208.843,395.013 278.5,379C 298.066,373.053 315.733,363.719 331.5,351C 340.833,346.333 350.167,346.333 359.5,351C 370.667,362.167 381.833,373.333 393,384.5C 398.601,393.936 398.934,403.602 394,413.5C 364.088,440.709 329.255,458.876 289.5,468C 278.747,470.175 268.08,472.008 257.5,473.5C 243.833,473.5 230.167,473.5 216.5,473.5C 139.832,464.624 79.9989,428.29 37,364.5C 14.3231,327.972 1.82307,288.306 -0.5,245.5C -0.5,239.5 -0.5,233.5 -0.5,227.5C 6.19267,139.247 47.526,72.747 123.5,28C 152.795,12.5096 183.795,3.0096 216.5,-0.5 Z"/></g>
<g><path style="opacity:1" fill="#e20612" d="M 660.5,-0.5 C 674.5,-0.5 688.5,-0.5 702.5,-0.5C 798.227,12.1077 865.06,62.7743 903,151.5C 931.528,233.137 920.861,309.137 871,379.5C 827.959,434.11 771.792,465.443 702.5,473.5C 688.5,473.5 674.5,473.5 660.5,473.5C 565.147,460.974 498.313,410.64 460,322.5C 433.391,248.655 440.057,177.988 480,110.5C 522.849,45.6446 583.016,8.64461 660.5,-0.5 Z M 665.5,88.5 C 736.243,85.2714 787.076,115.271 818,178.5C 838.478,232.217 831.811,282.217 798,328.5C 755.674,377.606 702.841,394.439 639.5,379C 579.104,358.373 543.937,316.54 534,253.5C 529.57,188.52 555.07,139.353 610.5,106C 627.897,96.8104 646.23,90.977 665.5,88.5 Z"/></g>
<g><path style="opacity:1" fill="#e20612" d="M 2082.5,-0.5 C 2096.5,-0.5 2110.5,-0.5 2124.5,-0.5C 2176.5,4.92305 2222,24.9231 2261,59.5C 2266.99,69.5375 2266.99,79.5375 2261,89.5C 2251.5,99 2242,108.5 2232.5,118C 2222.2,124.887 2211.2,126.22 2199.5,122C 2152.3,86.3487 2100.97,79.0153 2045.5,100C 1988.07,127.292 1958.07,172.792 1955.5,236.5C 1957.67,298.029 1986,342.863 2040.5,371C 2097.69,394.638 2150.69,387.638 2199.5,350C 2209.59,345.395 2219.26,346.395 2228.5,353C 2238.33,362.833 2248.17,372.667 2258,382.5C 2267.2,395.385 2266.37,407.552 2255.5,419C 2217.21,449.935 2173.54,468.102 2124.5,473.5C 2110.5,473.5 2096.5,473.5 2082.5,473.5C 1993.5,461.982 1928.67,416.315 1888,336.5C 1854.85,258.26 1859.85,182.594 1903,109.5C 1945.7,45.2161 2005.54,8.54939 2082.5,-0.5 Z"/></g>
<g><path style="opacity:1" fill="#e20612" d="M 1019.5,8.5 C 1090.5,8.33334 1161.5,8.5 1232.5,9C 1296.39,12.509 1343.89,42.009 1375,97.5C 1405.6,164.31 1397.6,225.977 1351,282.5C 1321.22,314.642 1284.38,332.808 1240.5,337C 1189.08,337.009 1137.75,337.676 1086.5,339C 1085.87,339.75 1085.37,340.584 1085,341.5C 1084.67,375.167 1084.33,408.833 1084,442.5C 1081.29,455.205 1073.46,462.371 1060.5,464C 1044.79,464.901 1029.13,464.568 1013.5,463C 1004.57,459.74 998.739,453.573 996,444.5C 995.333,305.833 995.333,167.167 996,28.5C 999.766,16.8908 1007.6,10.2241 1019.5,8.5 Z M 1087.5,98.5 C 1138.17,98.3333 1188.83,98.5 1239.5,99C 1276.83,106.991 1298.33,129.824 1304,167.5C 1304.65,203.704 1288.48,229.204 1255.5,244C 1251.88,245.156 1248.21,246.156 1244.5,247C 1192.2,248.64 1139.87,248.973 1087.5,248C 1086.67,247.167 1085.83,246.333 1085,245.5C 1084.33,197.5 1084.33,149.5 1085,101.5C 1085.7,100.309 1086.53,99.3094 1087.5,98.5 Z"/></g>
<g><path style="opacity:1" fill="#e20612" d="M 1470.5,8.5 C 1576.86,8.01284 1683.2,8.51284 1789.5,10C 1798.67,12.5 1804.5,18.3333 1807,27.5C 1809,44.8333 1809,62.1667 1807,79.5C 1803.53,90.4931 1796.03,96.6598 1784.5,98C 1677.8,98.9872 1571.14,98.6538 1464.5,97C 1455.17,93.6648 1449.33,87.1648 1447,77.5C 1446.33,61.5 1446.33,45.5 1447,29.5C 1450.32,17.3388 1458.16,10.3388 1470.5,8.5 Z"/></g>
<g><path style="opacity:1" fill="#72787b" d="M 2927.5,12.5 C 2947.9,11.4134 2960.4,20.7467 2965,40.5C 2965.5,159.166 2965.67,277.833 2965.5,396.5C 3037.83,396.333 3110.17,396.5 3182.5,397C 3201.26,402.013 3209.43,414.18 3207,433.5C 3202.94,447.224 3193.77,454.724 3179.5,456C 3096.83,456.667 3014.17,456.667 2931.5,456C 2916.65,454.001 2907.15,445.834 2903,431.5C 2902.33,300.167 2902.33,168.833 2903,37.5C 2906.68,24.6514 2914.85,16.3181 2927.5,12.5 Z"/></g>
<g><path style="opacity:1" fill="#72787b" d="M 3284.5,12.5 C 3303.59,11.1136 3316.09,19.4469 3322,37.5C 3322.33,117.833 3322.67,198.167 3323,278.5C 3323.38,312.325 3334.05,342.325 3355,368.5C 3380.09,392.775 3410.25,404.442 3445.5,403.5C 3480.27,404.638 3510.11,393.305 3535,369.5C 3555.85,343.304 3566.18,313.304 3566,279.5C 3566.33,198.833 3566.67,118.167 3567,37.5C 3574.39,16.3895 3588.89,8.88949 3610.5,15C 3620.87,20.3809 3627.04,28.8809 3629,40.5C 3629.67,119.833 3629.67,199.167 3629,278.5C 3628.36,325.412 3614.03,367.412 3586,404.5C 3558.09,435.711 3523.25,454.211 3481.5,460C 3432.14,468.001 3385.47,460.334 3341.5,437C 3296.77,407.525 3270.6,366.025 3263,312.5C 3261.42,302.893 3260.42,293.226 3260,283.5C 3259.33,202.5 3259.33,121.5 3260,40.5C 3262.4,25.9815 3270.57,16.6482 3284.5,12.5 Z"/></g>
<g><path style="opacity:1" fill="#72787b" d="M 3732.5,12.5 C 3745.02,10.5836 3755.52,14.2503 3764,23.5C 3790.33,57.8333 3816.67,92.1667 3843,126.5C 3845.17,131.339 3844.83,136.006 3842,140.5C 3832.86,152.967 3823.03,164.8 3812.5,176C 3809.41,176.847 3806.58,176.347 3804,174.5C 3775.05,137.212 3745.71,100.212 3716,63.5C 3704.35,45.9486 3706.52,30.4486 3722.5,17C 3725.89,15.38 3729.23,13.88 3732.5,12.5 Z"/></g>
<g><path style="opacity:1" fill="#72787b" d="M 4074.5,422.5 C 4074.5,426.5 4074.5,430.5 4074.5,434.5C 4067.19,455.158 4052.86,462.658 4031.5,457C 4024.09,452.927 4017.92,447.427 4013,440.5C 3971.36,386.024 3929.52,331.691 3887.5,277.5C 3845.33,332.5 3803.17,387.5 3761,442.5C 3756.04,448.465 3750.21,453.298 3743.5,457C 3723.18,462.592 3709.68,455.425 3703,435.5C 3701.36,424.077 3704.36,414.077 3712,405.5C 3810.57,281.349 3908.91,157.015 4007,32.5C 4013.12,23.3703 4021.29,16.8703 4031.5,13C 4053.23,10.7394 4065.57,20.4061 4068.5,42C 4068.29,48.6448 4066.45,54.8115 4063,60.5C 4018.15,117.344 3973.32,174.178 3928.5,231C 3974.21,289.573 4020.04,348.073 4066,406.5C 4069.66,411.493 4072.49,416.827 4074.5,422.5 Z"/></g>
<g><path style="opacity:1" fill="#72787b" d="M 2528.5,15.5 C 2620.17,15.3333 2711.83,15.5 2803.5,16C 2823.42,22.6647 2830.58,36.1647 2825,56.5C 2820.92,65.5837 2814.08,71.417 2804.5,74C 2725.17,74.5 2645.83,74.6667 2566.5,74.5C 2566.5,120.167 2566.5,165.833 2566.5,211.5C 2635.5,211.333 2704.5,211.5 2773.5,212C 2794.38,217.225 2802.55,230.392 2798,251.5C 2793.97,261.27 2786.81,267.437 2776.5,270C 2706.5,270.5 2636.5,270.667 2566.5,270.5C 2566.67,324.168 2566.5,377.834 2566,431.5C 2560.77,452.197 2547.6,461.03 2526.5,458C 2514.83,453.661 2507.33,445.495 2504,433.5C 2503.33,302.833 2503.33,172.167 2504,41.5C 2507.24,28.0947 2515.41,19.4281 2528.5,15.5 Z"/></g>
<g><path style="opacity:1" fill="#e20612" d="M 1578.5,191.5 C 1642.17,191.333 1705.83,191.5 1769.5,192C 1781.98,193.481 1789.82,200.314 1793,212.5C 1793.94,229.886 1793.61,247.22 1792,264.5C 1787.79,274.518 1780.29,280.018 1769.5,281C 1705.83,281.667 1642.17,281.667 1578.5,281C 1566.46,279.628 1558.62,273.128 1555,261.5C 1554.33,244.833 1554.33,228.167 1555,211.5C 1558.79,199.862 1566.62,193.195 1578.5,191.5 Z"/></g>
<g><path style="opacity:1" fill="#e20612" d="M 1470.5,374.5 C 1576.87,374.011 1683.2,374.511 1789.5,376C 1798.67,378.5 1804.5,384.333 1807,393.5C 1809,410.833 1809,428.167 1807,445.5C 1803.28,456.79 1795.44,462.957 1783.5,464C 1677.46,464.989 1571.46,464.656 1465.5,463C 1455.57,460.067 1449.4,453.567 1447,443.5C 1446.33,427.5 1446.33,411.5 1447,395.5C 1450.36,383.295 1458.2,376.295 1470.5,374.5 Z"/></g>
</svg>
